<?xml version="1.0" standalone="no"?>
<!DOCTYPE svg PUBLIC "-//W3C//DTD SVG 20010904//EN"
 "http://www.w3.org/TR/2001/REC-SVG-20010904/DTD/svg10.dtd">
<svg version="1.0" xmlns="http://www.w3.org/2000/svg"
 width="225.000000pt" height="225.000000pt" viewBox="0 0 225.000000 225.000000"
 preserveAspectRatio="xMidYMid meet">

<g transform="translate(0.000000,225.000000) scale(0.100000,-0.100000)"
fill="#000000" stroke="none">
<path d="M591 2189 c-38 -15 -72 -24 -76 -21 -3 3 -19 -4 -35 -16 -16 -12 -36
-22 -43 -22 -8 0 -31 -13 -52 -30 -21 -16 -44 -30 -51 -30 -18 0 -84 -59 -84
-75 0 -6 -18 -20 -41 -30 -41 -19 -59 -40 -59 -70 0 -9 -14 -28 -30 -42 -40
-33 -53 -59 -42 -80 7 -12 2 -27 -19 -56 -32 -44 -36 -69 -14 -87 12 -10 11
-18 -5 -61 -28 -70 -26 -121 5 -155 15 -16 25 -39 25 -58 1 -49 35 -114 64
-122 13 -3 32 -14 42 -25 9 -10 25 -19 35 -19 12 0 20 -11 24 -32 16 -71 65
-148 95 -148 27 0 31 -24 10 -65 -15 -29 -16 -42 -8 -68 6 -18 10 -56 9 -85
-1 -31 4 -63 13 -80 8 -15 17 -39 20 -54 4 -15 16 -37 29 -48 44 -42 65 -176
47 -306 -14 -103 -7 -131 42 -167 24 -18 44 -21 130 -21 158 -1 189 19 212
142 13 67 13 67 21 30 4 -22 2 -64 -5 -101 -23 -112 16 -147 163 -147 101 0
217 26 247 56 24 24 25 28 27 181 1 126 4 158 16 165 9 5 19 2 27 -7 10 -12 9
-29 -4 -86 -33 -147 -19 -169 107 -169 69 0 92 4 133 25 52 26 94 81 94 124 0
24 9 26 34 8 17 -12 17 -17 0 -100 -19 -99 -14 -123 33 -154 21 -14 47 -18
113 -18 139 1 208 34 256 125 17 30 19 55 17 190 -2 85 -7 187 -13 225 -6 39
-12 122 -15 185 -10 248 -17 315 -40 340 -17 19 -16 22 57 92 90 87 119 143
119 225 1 89 -27 141 -70 130 -15 -4 -27 6 -46 35 -46 70 -106 128 -131 128
-12 0 -36 -12 -53 -26 l-30 -25 -43 24 c-57 33 -89 39 -140 28 -45 -10 -83
-45 -74 -67 3 -9 -7 -16 -32 -20 -20 -4 -44 -10 -53 -15 -13 -6 -15 1 -15 45
1 42 -5 61 -26 91 -21 30 -25 42 -17 57 12 23 -7 59 -47 84 -14 9 -32 30 -40
46 -9 17 -31 36 -52 45 -20 8 -41 22 -45 29 -8 15 -70 57 -117 82 -14 7 -36
19 -50 27 -14 8 -34 15 -46 15 -11 0 -29 7 -40 15 -10 8 -35 15 -54 15 -20 0
-41 5 -48 12 -8 8 -59 12 -151 13 -129 1 -144 -1 -210 -26z m274 -21 c4 -3 22
-4 41 -1 22 4 34 2 34 -6 0 -6 16 -11 38 -11 21 0 47 -7 58 -15 10 -8 33 -15
50 -15 17 0 37 -7 44 -15 6 -8 21 -17 32 -21 27 -8 106 -62 115 -79 5 -7 25
-20 47 -29 30 -12 36 -19 28 -29 -9 -10 1 -21 43 -46 53 -32 72 -61 40 -61 -8
0 -15 -7 -15 -15 0 -8 4 -15 9 -15 14 0 71 -94 71 -116 0 -11 -5 -25 -12 -32
-8 -8 -5 -26 15 -70 32 -71 34 -102 8 -109 -16 -4 -17 -10 -10 -43 10 -44 -2
-87 -26 -96 -8 -4 -15 -18 -15 -34 0 -31 -23 -55 -45 -46 -8 3 -28 -2 -45 -12
-23 -13 -33 -15 -47 -5 -10 6 -17 16 -15 23 8 36 -22 91 -75 140 -67 62 -89
96 -72 117 9 10 8 18 -6 33 -10 11 -23 20 -28 20 -6 0 -3 -8 6 -18 21 -23 21
-32 1 -32 -15 0 -15 -2 0 -25 9 -13 16 -28 16 -32 0 -5 -29 -9 -65 -10 -65 -2
-65 -2 -50 20 28 40 9 99 -39 116 -52 20 -108 -37 -88 -90 20 -52 46 -63 156
-69 90 -4 108 -8 143 -32 51 -33 86 -101 77 -146 -4 -18 -9 -32 -13 -32 -3 0
-13 21 -21 47 -8 26 -21 49 -27 51 -9 2 -8 -4 2 -25 23 -44 19 -140 -8 -188
-26 -46 -60 -55 -65 -17 -4 29 -10 28 -47 -8 -17 -16 -45 -33 -63 -36 -32 -6
-33 -6 -26 20 6 24 4 26 -30 26 -20 0 -36 2 -36 4 0 2 7 20 15 40 13 31 13 40
2 64 -8 15 -12 34 -9 42 4 11 0 11 -21 -3 -30 -20 -60 -22 -89 -6 -16 9 -34 8
-73 -1 -43 -10 -56 -10 -81 3 -29 15 -29 15 -32 -17 -6 -53 -5 -80 3 -105 8
-22 6 -23 -29 -19 -37 4 -38 4 -32 -25 6 -29 5 -29 -26 -23 -18 3 -46 20 -63
36 -38 36 -45 37 -45 5 0 -44 -44 -25 -73 32 -21 40 -22 122 -2 170 8 20 13
38 11 41 -7 6 -46 -74 -47 -95 0 -13 -3 -11 -10 7 -22 55 21 134 91 170 31 16
59 20 130 20 88 0 93 1 121 29 55 55 31 131 -41 131 -29 0 -41 -6 -54 -25 -18
-27 -21 -67 -6 -95 9 -16 4 -18 -51 -19 -33 0 -64 -3 -70 -6 -14 -9 -11 23 6
55 11 22 12 29 2 33 -9 3 -8 8 3 23 14 18 14 18 -10 3 -14 -10 -25 -27 -26
-40 -2 -78 -5 -84 -44 -111 -45 -31 -80 -92 -80 -141 0 -18 -5 -38 -12 -45
-15 -15 -55 -16 -63 -2 -4 6 -15 8 -25 5 -13 -4 -23 1 -32 14 -7 12 -20 21
-29 21 -27 0 -40 25 -52 100 -7 44 -15 70 -23 70 -38 0 -33 73 11 160 31 61
31 60 0 60 -21 0 -24 3 -16 18 5 9 28 36 50 59 23 23 41 45 41 48 0 3 -11 5
-25 5 -35 0 -31 10 20 49 35 26 43 37 34 47 -15 18 -7 27 40 48 25 12 44 29
51 47 9 20 29 36 65 53 28 14 58 32 65 41 7 8 22 15 35 15 12 0 30 9 39 19 10
11 24 17 31 14 8 -2 24 2 37 11 12 9 35 16 50 16 16 0 28 4 28 9 0 5 8 11 17
13 33 6 201 3 208 -4z m930 -472 c19 -8 51 -27 70 -42 l35 -27 34 39 c29 33
37 37 53 28 16 -9 99 -118 129 -170 11 -18 12 -18 29 0 16 15 19 16 27 3 14
-26 11 -120 -5 -160 -18 -43 -100 -132 -157 -172 -41 -29 -51 -52 -26 -61 24
-9 49 -55 38 -66 -7 -7 -5 -21 6 -44 12 -26 13 -41 6 -62 -7 -20 -6 -37 5 -65
11 -30 12 -42 2 -60 -9 -17 -9 -30 -1 -52 6 -16 8 -46 5 -67 -4 -24 -2 -44 4
-52 7 -8 11 -31 11 -52 0 -22 4 -77 9 -124 13 -120 13 -216 -1 -262 -25 -83
-102 -123 -235 -123 -61 0 -76 3 -94 22 -21 21 -21 22 -5 111 18 98 16 113
-20 137 -13 8 -24 22 -24 30 0 7 -13 23 -29 34 -16 12 -32 34 -36 50 -3 15
-19 38 -35 50 -22 16 -30 30 -30 53 0 17 -6 39 -14 47 -8 9 -19 32 -25 51
l-11 35 3 -43 c2 -32 -1 -41 -11 -37 -7 2 -16 -3 -19 -13 -10 -28 -35 -52 -54
-52 -10 0 -24 -12 -31 -28 -10 -20 -21 -28 -48 -30 -23 -2 -42 -12 -57 -30
-17 -21 -23 -24 -26 -12 -22 68 -24 78 -15 94 10 18 -6 81 -23 91 -5 4 -4 -5
3 -20 9 -20 9 -33 0 -59 -9 -23 -9 -41 -3 -57 16 -39 32 -241 25 -317 -5 -51
-12 -76 -26 -88 -46 -42 -285 -60 -329 -26 -21 18 -22 22 -11 78 13 69 10 238
-5 274 -7 16 -7 34 -1 49 5 16 5 28 -2 35 -5 5 -10 26 -10 45 -1 30 -2 33 -11
18 -6 -10 -8 -34 -5 -52 9 -47 -2 -82 -27 -89 -16 -4 -31 5 -60 37 -24 26 -41
37 -44 30 -9 -25 -40 -13 -54 19 -7 17 -15 26 -17 19 -6 -18 17 -69 35 -75 8
-3 21 -2 29 2 10 6 27 -4 56 -31 l41 -39 -12 -95 c-6 -53 -19 -108 -28 -124
-22 -37 -94 -54 -187 -44 -85 9 -110 31 -102 90 3 22 9 83 12 136 5 77 3 101
-10 127 -9 17 -16 45 -16 62 0 20 -10 41 -30 62 -21 21 -30 41 -30 63 0 20 -6
35 -15 39 -18 7 -19 38 -3 84 12 31 11 35 -11 51 -23 18 -23 18 -6 55 16 34
20 36 49 30 17 -3 46 -15 63 -26 18 -11 41 -18 50 -17 10 2 32 -5 50 -14 18
-9 38 -17 45 -17 20 0 -74 52 -99 55 -12 1 -35 11 -50 21 -15 10 -37 19 -48
19 -10 0 -28 14 -40 31 -43 67 -45 69 -51 57 -10 -22 -20 -15 -42 30 -37 76
-38 93 -2 110 38 19 60 13 60 -18 0 -36 18 -77 48 -107 28 -31 67 -37 76 -13
5 14 10 13 35 -6 17 -12 46 -22 68 -23 32 -1 38 2 41 22 3 16 10 22 28 22 31
0 39 20 24 64 -8 26 -8 40 0 56 15 28 30 16 30 -23 0 -68 63 -108 139 -87 46
12 71 48 71 100 0 34 14 39 30 11 8 -15 6 -29 -6 -55 -22 -45 -13 -66 26 -66
17 0 29 -4 26 -9 -4 -5 -3 -17 0 -26 10 -26 79 -14 115 21 28 27 29 27 29 6 0
-25 27 -30 62 -11 24 13 57 83 58 122 0 17 5 27 15 27 8 0 15 4 15 9 0 5 19 9
43 9 23 0 59 3 80 7 30 6 37 4 37 -8 0 -30 -19 -64 -38 -69 -12 -3 -21 -18
-26 -38 -8 -45 -24 -61 -51 -54 -18 4 -24 0 -33 -23 -13 -38 -38 -63 -63 -63
-11 0 -36 -12 -54 -26 -19 -14 -39 -23 -46 -19 -6 4 -23 -1 -37 -12 -15 -11
-36 -23 -46 -26 -10 -4 -16 -10 -13 -13 3 -3 23 2 44 12 21 10 46 17 56 16 10
-2 33 8 51 21 18 14 46 27 62 29 22 2 34 12 49 40 13 24 28 38 47 42 27 5 58
48 58 81 0 8 6 15 14 15 24 0 35 25 48 106 8 51 14 68 16 49 6 -54 31 -131 53
-158 30 -39 63 -35 93 11 13 20 35 47 48 60 l24 22 33 -84 c29 -78 72 -136
101 -136 19 0 32 46 40 134 8 96 33 165 59 167 11 0 12 2 3 6 -37 15 -69 -54
-82 -178 -5 -50 -12 -94 -15 -97 -20 -20 -73 57 -102 147 -10 29 -24 56 -32
59 -13 5 -62 -42 -103 -99 -13 -20 -20 -22 -35 -13 -35 20 -57 84 -56 159 3
124 8 161 22 178 9 12 12 31 7 65 -5 42 -3 49 16 61 12 8 53 16 90 19 38 3 68
8 68 13 0 5 -10 17 -22 29 -23 21 -18 34 17 43 35 8 45 7 80 -7z m-1115 -140
c0 -19 -26 -38 -47 -34 -25 5 -29 37 -7 53 21 15 54 3 54 -19z m314 -14 c-6
-9 -22 -17 -35 -17 -34 0 -40 42 -7 54 31 12 58 -11 42 -37z m-314 -42 c0 -5
-4 -10 -10 -10 -5 0 -10 5 -10 10 0 6 5 10 10 10 6 0 10 -4 10 -10z m324 -11
c-3 -5 -10 -7 -15 -3 -5 3 -7 10 -3 15 3 5 10 7 15 3 5 -3 7 -10 3 -15z m-185
-310 c11 17 31 6 31 -17 0 -15 2 -15 10 -2 11 17 12 4 1 -24 -8 -20 -81 -35
-81 -17 0 6 -7 8 -16 4 -12 -4 -14 0 -8 23 4 16 14 37 22 47 15 17 17 17 25
-5 6 -17 10 -19 16 -9z m717 -598 c4 -14 11 -31 16 -38 5 -7 7 -16 4 -21 -3
-6 2 -9 11 -8 10 0 26 -17 41 -46 52 -101 -4 -227 -108 -243 -25 -3 -67 -5
-95 -3 l-50 3 1 40 c0 22 6 68 14 102 13 60 13 64 -8 92 l-22 30 30 6 c20 4
36 17 46 37 8 16 18 27 21 24 3 -3 15 0 27 6 11 7 24 11 29 10 4 -1 6 1 6 6
-1 4 -1 15 0 24 2 26 30 10 37 -21z m-679 -203 c-3 -7 -5 -2 -5 12 0 14 2 19
5 13 2 -7 2 -19 0 -25z"/>
<path d="M735 1407 c-14 -11 -16 -21 -11 -43 21 -82 123 -98 161 -25 19 38 19
46 -1 65 -20 20 -122 22 -149 3z"/>
<path d="M1521 574 c0 -11 3 -14 6 -6 3 7 2 16 -1 19 -3 4 -6 -2 -5 -13z"/>
</g>
</svg>
