<?xml version="1.0" encoding="UTF-8" standalone="no"?>
<!-- Created with Inkscape (http://www.inkscape.org/) -->

<svg
   xmlns:dc="http://purl.org/dc/elements/1.1/"
   xmlns:cc="http://creativecommons.org/ns#"
   xmlns:rdf="http://www.w3.org/1999/02/22-rdf-syntax-ns#"
   xmlns:svg="http://www.w3.org/2000/svg"
   xmlns="http://www.w3.org/2000/svg"
   xmlns:sodipodi="http://sodipodi.sourceforge.net/DTD/sodipodi-0.dtd"
   xmlns:inkscape="http://www.inkscape.org/namespaces/inkscape"
   version="1.1"
   id="svg2"
   width="32"
   height="32"
   viewBox="0 0 32.000001 32"
   sodipodi:docname="favicon-roost.svg"
   inkscape:version="0.92.2 (5c3e80d, 2017-08-06)">
  <metadata
     id="metadata8">
    <rdf:RDF>
      <cc:Work
         rdf:about="">
        <dc:format>image/svg+xml</dc:format>
        <dc:type
           rdf:resource="http://purl.org/dc/dcmitype/StillImage" />
        <dc:title></dc:title>
      </cc:Work>
    </rdf:RDF>
  </metadata>
  <defs
     id="defs6" />
  <sodipodi:namedview
     pagecolor="#ffffff"
     bordercolor="#666666"
     borderopacity="1"
     objecttolerance="10"
     gridtolerance="10"
     guidetolerance="10"
     inkscape:pageopacity="0"
     inkscape:pageshadow="2"
     inkscape:window-width="1920"
     inkscape:window-height="1017"
     id="namedview4"
     showgrid="false"
     inkscape:zoom="13.766667"
     inkscape:cx="34.576683"
     inkscape:cy="12.026272"
     inkscape:window-x="1912"
     inkscape:window-y="263"
     inkscape:window-maximized="1"
     inkscape:current-layer="svg2"
     fit-margin-top="0"
     fit-margin-left="0"
     fit-margin-right="0"
     fit-margin-bottom="0" />
  <circle
     style="opacity:1;vector-effect:none;fill:#ffffff;fill-opacity:1;fill-rule:evenodd;stroke:none;stroke-width:2.34582448;stroke-linecap:round;stroke-linejoin:round;stroke-miterlimit:4;stroke-dasharray:none;stroke-dashoffset:0;stroke-opacity:1;paint-order:stroke fill markers"
     id="path812"
     cx="16"
     cy="16"
     r="16"
     inkscape:export-xdpi="780"
     inkscape:export-ydpi="780" />
  <path
     inkscape:connector-curvature="0"
     id="path24131-7"
     d="m 14.062057,5.9004275 c -1.151851,0 -2.237757,0.6595 -2.690538,1.7579115 -0.359538,0.8732691 -0.246064,1.8375041 0.234238,2.590246 -1.063389,0.47302 -1.8174939,1.519125 -1.8434169,2.742613 -0.04205,0.351331 0.214132,0.668092 0.5664879,0.700435 0.01895,8.52e-4 0.03792,8.52e-4 0.05686,0 h 2.03331 c 0.801714,-0.0359 0.801714,-1.221715 0,-1.257599 h -1.302403 c 0.186487,-0.509407 0.59037,-0.909657 1.106598,-1.089314 v 0.136452 c 1.89e-4,0.837902 1.257346,0.837902 1.257149,0 v -0.718628 c 0.06388,-0.244416 -0.02481,-0.503326 -0.225144,-0.657228 -0.0392,-0.03566 -0.08276,-0.06623 -0.12962,-0.09097 -0.641086,-0.4116169 -0.892606,-1.2075662 -0.602197,-1.9125492 0.109156,-0.2615266 0.280857,-0.4798449 0.493033,-0.648131 v 0.3411219 c 0.09552,0.8755434 0.862586,1.5373194 1.743131,1.5168514 0.0083,1.66e-4 0.01668,1.66e-4 0.02503,0 h 0.635172 c 0.877842,0.04196 0.877842,-1.2972849 0,-1.2553262 h -0.63517 c -0.01439,-4.807e-4 -0.0288,-4.807e-4 -0.04319,0 -0.248106,0 -0.44459,-0.1364516 -0.470517,-0.4002481 -0.02274,-0.2274137 0.109155,-0.4161676 0.323613,-0.4775694 0.185771,-0.018342 0.353764,-0.118348 0.458465,-0.2728961 0.01054,-0.01473 0.02037,-0.02991 0.02956,-0.045484 0.225875,-0.4019236 -0.0436,-0.9021612 -0.50349,-0.9346718 -0.136452,0 -0.275175,-0.045484 -0.41208,-0.045484 h -0.113701 z m 3.467158,2.3673798 c -0.0076,-1.364e-4 -0.01517,-1.364e-4 -0.02276,0 -0.0076,-1.364e-4 -0.01517,-1.364e-4 -0.02276,0 -0.0076,-1.364e-4 -0.01517,-1.364e-4 -0.02274,0 -0.180115,0.018525 -0.343483,0.1138502 -0.448238,0.2615266 l -1.989633,1.9898721 c -0.644427,0.591961 0.298095,1.532555 0.888734,0.886916 l 1.665126,-1.6623969 c 0.385469,0.4366349 0.498036,1.0552019 0.265391,1.6191889 -0.286998,0.689065 -1.024957,1.093862 -1.779514,0.964235 -0.06734,-0.02727 -0.138897,-0.04266 -0.211496,-0.04547 -0.07568,0.0018 -0.150399,0.01716 -0.220588,0.04547 -0.0076,-1.36e-4 -0.01517,-1.36e-4 -0.02276,0 -0.0076,-1.36e-4 -0.01517,-1.36e-4 -0.02274,0 -0.263631,0.11787 -0.412987,0.40026 -0.362037,0.684516 v 2.101308 h -0.109155 c -0.920798,0 -1.821133,0.37523 -2.457668,1.077939 -0.848931,0.936948 -1.081122,2.285511 -0.596048,3.449874 0.485302,1.168912 1.60418,1.955764 2.86769,2.014889 0.885138,0.09586 0.949377,-1.265108 0.05915,-1.253054 -0.780713,-0.0455 -1.466822,-0.518499 -1.766777,-1.239404 -0.29996,-0.72545 -0.156917,-1.548692 0.367042,-2.128596 0.505084,-0.559437 1.272608,-0.789128 1.996923,-0.604921 0.171045,0.08154 0.369749,0.08154 0.540794,0 0.262151,-0.121187 0.407942,-0.405459 0.353395,-0.689067 v -2.155884 c 1.087495,-0.06823 2.084024,-0.723175 2.514292,-1.760185 0.51282,-1.237133 0.06823,-2.6698409 -1.035414,-3.4180337 C 17.835791,8.2979087 17.676696,8.2408206 17.513747,8.2473409 Z m 4.946481,5.6580637 c -2.134055,0 -3.879,1.723799 -3.949732,3.85467 -0.0021,0.03028 -0.0021,0.06069 0,0.09097 v 0 0 c 0,0.345674 -0.188751,0.661777 -0.483934,0.843706 -0.314286,0.181934 -0.70544,0.181934 -1.027227,0 -0.321568,-0.159185 -0.519191,-0.516229 -0.519191,-0.88691 0.0087,-0.846517 -1.265457,-0.846517 -1.256691,0 0,0.820964 0.445733,1.582796 1.162087,1.98305 0.716811,0.400242 1.597357,0.38433 2.297338,-0.04548 0.685198,-0.41617 1.096594,-1.168907 1.083632,-1.969404 0.02276,-1.50321 1.217348,-2.690313 2.69508,-2.690313 1.491382,0 2.693037,1.214392 2.693037,2.731245 -0.0048,0.354074 0.283836,0.642154 0.6379,0.636758 v 0 c 0.346583,-0.0052 0.619431,-0.215096 0.618794,-0.561721 -0.0039,-2.189993 -1.771332,-3.984297 -3.949048,-3.98657 z m -11.690447,0.354765 c -0.185693,0.0012 -0.361356,0.08443 -0.479846,0.227414 -1.9302937,2.23093 -2.1615685,5.471584 -0.5680799,7.952671 1.5934939,2.478813 4.6378819,3.618157 7.4657739,2.785826 2.758764,-0.811867 4.678818,-3.304331 4.771149,-6.165197 0.0034,-0.03782 0.0034,-0.07589 0,-0.11371 v -1.196199 c 0,-0.159192 0.09551,-0.33657 0.245151,-0.427535 0.150092,-0.09097 0.338627,-0.09097 0.491446,0 0.150093,0.09097 0.245148,0.250157 0.245148,0.427535 -0.006,0.355057 0.283065,0.644596 0.638129,0.639036 0.347575,-0.0051 0.624953,-0.291473 0.61902,-0.639036 0,-0.625387 -0.334302,-1.203018 -0.874178,-1.510029 -0.539881,-0.31383 -1.207571,-0.31383 -1.74745,0 -0.470525,0.270622 -0.784353,0.743645 -0.857357,1.271245 -0.01251,0.0445 -0.02021,0.09027 -0.02276,0.136451 v 1.096132 c -0.0021,0.03028 -0.0021,0.06069 0,0.09097 0,2.392398 -1.574157,4.500526 -3.872859,5.17367 -2.298016,0.67542 -4.759546,-0.241058 -6.055126,-2.260495 -1.2948929,-2.014887 -1.1075039,-4.636972 0.461197,-6.449463 0.3572,-0.405339 0.07021,-1.042644 -0.470063,-1.043831 z"
     style="color:#000000;font-style:normal;font-variant:normal;font-weight:normal;font-stretch:normal;font-size:medium;line-height:normal;font-family:sans-serif;text-indent:0;text-align:start;text-decoration:none;text-decoration-line:none;text-decoration-style:solid;text-decoration-color:#000000;letter-spacing:normal;word-spacing:normal;text-transform:none;writing-mode:lr-tb;direction:ltr;baseline-shift:baseline;text-anchor:start;white-space:normal;clip-rule:nonzero;display:inline;overflow:visible;visibility:visible;opacity:1;isolation:auto;mix-blend-mode:normal;color-interpolation:sRGB;color-interpolation-filters:linearRGB;solid-color:#000000;solid-opacity:1;fill:#000000;fill-opacity:1;fill-rule:nonzero;stroke:none;stroke-width:32.41851425;stroke-linecap:round;stroke-linejoin:round;stroke-miterlimit:4;stroke-dasharray:none;stroke-dashoffset:2.19999981;stroke-opacity:1;color-rendering:auto;image-rendering:auto;shape-rendering:auto;text-rendering:auto;enable-background:accumulate"
     sodipodi:nodetypes="cccccccccccccccccccccccccccccsccccccccccccccccccsccccccccccccccccccccccccccscccsccccccccscccccccccccccccc"
     inkscape:export-xdpi="780"
     inkscape:export-ydpi="780" />
</svg>
