<svg height="496pt" viewBox="0 0 496 496" width="496pt" xmlns="http://www.w3.org/2000/svg"><path d="m488 248c0 132.546875-107.453125 240-240 240s-240-107.453125-240-240 107.453125-240 240-240 240 107.453125 240 240zm0 0" fill="#acabb1"/><path d="m136 383.769531v-271.539062l199.769531 135.769531zm0 0" fill="#4e901e"/><path d="m240 383.769531v-271.539062l199.769531 135.769531zm0 0" fill="#91cc04"/><g fill="#231f20"><path d="m248 0c-136.964844 0-248 111.035156-248 248s111.035156 248 248 248 248-111.035156 248-248c-.160156-136.902344-111.097656-247.839844-248-248zm0 480c-128.128906 0-232-103.871094-232-232s103.871094-232 232-232 232 103.871094 232 232c-.140625 128.070312-103.929688 231.859375-232 232zm0 0"/><path d="m109.976562 81.847656c-33.832031 28-58.28125 65.691406-70.054687 108-1.191406 4.257813 1.296875 8.671875 5.554687 9.859375 4.257813 1.191407 8.671876-1.296875 9.859376-5.554687 10.902343-39.175782 33.539062-74.074219 64.863281-100 2.257812-1.808594 3.363281-4.695313 2.890625-7.546875-.472656-2.855469-2.445313-5.230469-5.164063-6.21875-2.71875-.984375-5.757812-.425781-7.949219 1.460937zm0 0"/><path d="m43.664062 208.097656c-4.363281-.675781-8.449218 2.3125-9.128906 6.679688-1.277344 8.253906-2.078125 16.574218-2.398437 24.917968-.082031 2.125.683593 4.195313 2.132812 5.753907 1.445313 1.558593 3.453125 2.476562 5.578125 2.550781h.3125c4.300782.003906 7.835938-3.398438 8-7.695312.285156-7.730469 1.019532-15.4375 2.199219-23.082032.324219-2.097656-.199219-4.238281-1.457031-5.949218-1.253906-1.714844-3.140625-2.855469-5.238282-3.175782zm0 0"/><path d="m444.257812 241.382812-199.761718-135.78125c-2.453125-1.667968-5.628906-1.839843-8.25-.449218s-4.253906 4.121094-4.246094 7.085937v55.601563l-91.503906-62.238282c-2.453125-1.667968-5.628906-1.839843-8.25-.449218s-4.253906 4.121094-4.246094 7.085937v271.523438c0 2.960937 1.636719 5.679687 4.257812 7.066406 2.617188 1.386719 5.789063 1.214844 8.238282-.453125l91.503906-62.214844v55.601563c0 2.960937 1.636719 5.679687 4.257812 7.066406 2.617188 1.386719 5.789063 1.214844 8.238282-.453125l199.761718-135.757812c2.1875-1.492188 3.5-3.96875 3.5-6.617188s-1.3125-5.125-3.5-6.617188zm-300.257812-114.03125 88 59.847657v121.601562l-88 59.839844zm104 241.304688v-241.3125l177.527344 120.65625zm0 0"/></g></svg>